# xmcd
#
# Track frame offsets:
#  150
#  15320
#  35480
#
# Disc length: 688 seconds
#
# Revision: 0
# Processed by: cddbd v1.5.1PL2 Copyright (c) Steve Scherf et al.
# Submitted via: Collectorz.com_Music_Collector 6.11
#
DISCID=1602ae03
DTITLE=Public Image Ltd. - Seattle
DYEAR=1987
DGENRE=Alternative
TTITLE0=Seattle
TTITLE1=The Suit
TTITLE2=Selfish Rubbish
EXTD=
EXTT0=
EXTT1=
EXTT2=
PLAYORDER=
